<svg xmlns="http://www.w3.org/2000/svg" width="80.913" height="58.401" viewBox="0 0 80.913 58.401">
  <g id="opencart" transform="translate(0.413 0.344)">
    <path id="opencart-2" data-name="opencart" d="M52.9,51.909a5.707,5.707,0,0,1-9.738,4.028,5.68,5.68,0,0,1,0-8.071,5.524,5.524,0,0,1,4.046-1.685,5.445,5.445,0,0,1,4.028,1.683,5.556,5.556,0,0,1,1.667,4.043Zm-26,0a5.462,5.462,0,0,1-1.683,4.028,5.718,5.718,0,0,1-8.071,0,5.718,5.718,0,0,1,4.028-9.754A5.745,5.745,0,0,1,26.9,51.909ZM0,.046A44.782,44.782,0,0,0,3.836,3.673a27.476,27.476,0,0,0,4.2,2.847,34.112,34.112,0,0,0,4.721,2.187,39.849,39.849,0,0,0,5.762,1.579q3.383.7,6.942,1.092t8.679.642q5.12.246,10.553.329t12.93.09q4.825,0,8.488.173a62.025,62.025,0,0,1,6.282.572,27.048,27.048,0,0,1,4.3.955,5.968,5.968,0,0,1,2.464,1.372A2.775,2.775,0,0,1,80,17.3a4.055,4.055,0,0,1-.678,2.221,17.815,17.815,0,0,1-1.962,2.656,44.188,44.188,0,0,1-3.106,3.158q-1.876,1.75-4.025,3.629T65.4,33.1q-6.422,5.451-9.929,8.575a27.649,27.649,0,0,1,2.656-3.784q1.649-2.014,3.264-3.663T64.672,30.8q1.667-1.773,2.881-3.176a12.5,12.5,0,0,0,1.874-2.8,3.925,3.925,0,0,0,.451-2.43A3.2,3.2,0,0,0,68.3,20.474a11.912,11.912,0,0,0-4.043-1.424,55.3,55.3,0,0,0-7.082-.815q-4.408-.279-10.553-.173-5.832.07-10.9-.207t-8.886-.8a54.531,54.531,0,0,1-7.1-1.424A56.323,56.323,0,0,1,14.2,13.845a24.21,24.21,0,0,1-4.253-2.169A28.01,28.01,0,0,1,6.769,9.367,19.9,19.9,0,0,1,4.408,6.885,21.833,21.833,0,0,1,2.656,4.472q-.57-.955-1.388-2.361T0,.046Z" transform="translate(0 -0.046)" fill="#636363" stroke="#636363" stroke-width="1"/>
  </g>
</svg>
