<svg xmlns="http://www.w3.org/2000/svg" width="25.871" height="25.871" viewBox="0 0 25.871 25.871">
  <path id="ic_copyright_24px" d="M12.452,13.461a3.307,3.307,0,0,1,.388-1.125,2.263,2.263,0,0,1,.763-.8,2.3,2.3,0,0,1,1.177-.3,2.345,2.345,0,0,1,.815.168,2.086,2.086,0,0,1,.673.466,2.491,2.491,0,0,1,.44.686,2.265,2.265,0,0,1,.181.828H19.2a4.63,4.63,0,0,0-.362-1.669,3.882,3.882,0,0,0-.905-1.306,4.225,4.225,0,0,0-1.4-.854,5,5,0,0,0-1.8-.3,5.055,5.055,0,0,0-2.2.44,4.448,4.448,0,0,0-1.552,1.19,4.863,4.863,0,0,0-.918,1.759,7.576,7.576,0,0,0-.31,2.121v.349a7.574,7.574,0,0,0,.3,2.121,4.7,4.7,0,0,0,.918,1.746,4.416,4.416,0,0,0,1.552,1.177,5.249,5.249,0,0,0,2.2.44,4.934,4.934,0,0,0,1.707-.3,4.412,4.412,0,0,0,1.4-.815,3.948,3.948,0,0,0,.957-1.216,3.482,3.482,0,0,0,.388-1.488H16.863a1.842,1.842,0,0,1-.194.75,1.9,1.9,0,0,1-.466.6,2.037,2.037,0,0,1-.673.388,2.569,2.569,0,0,1-.776.129,2.2,2.2,0,0,1-1.151-.3,2.263,2.263,0,0,1-.763-.8,3.38,3.38,0,0,1-.388-1.138,8.719,8.719,0,0,1-.1-1.294v-.349a8.619,8.619,0,0,1,.1-1.306ZM14.935,2A12.935,12.935,0,1,0,27.871,14.935,12.94,12.94,0,0,0,14.935,2Zm0,23.284A10.348,10.348,0,1,1,25.284,14.935,10.362,10.362,0,0,1,14.935,25.284Z" transform="translate(-2 -2)" fill="#636363"/>
</svg>
