<svg xmlns="http://www.w3.org/2000/svg" width="83.952" height="80.111" viewBox="0 0 83.952 80.111">
  <path id="star" d="M82.95,30.657a3.6,3.6,0,0,1-1.3,2.392L63.558,50.7l4.288,24.924a7.405,7.405,0,0,1,.051,1,2.94,2.94,0,0,1-.523,1.77,1.762,1.762,0,0,1-1.523.724,4.025,4.025,0,0,1-1.993-.6L41.475,66.747,19.092,78.512a4.23,4.23,0,0,1-1.993.6,1.81,1.81,0,0,1-1.569-.724A2.951,2.951,0,0,1,15,76.618a8.149,8.149,0,0,1,.1-1L19.392,50.7,1.247,33.051A3.8,3.8,0,0,1,0,30.657q0-1.843,2.793-2.293l25.026-3.638L39.033,2.044Q39.98,0,41.475,0t2.442,2.044L55.134,24.726,80.16,28.364q2.793.449,2.793,2.293Z" transform="translate(0.5 0.5)" fill="#f47900" stroke="#707070" stroke-width="1"/>
</svg>
